<?xml version="1.0" standalone="no"?>
<!DOCTYPE svg PUBLIC "-//W3C//DTD SVG 20010904//EN"
 "http://www.w3.org/TR/2001/REC-SVG-20010904/DTD/svg10.dtd">
<svg version="1.0" xmlns="http://www.w3.org/2000/svg"
 width="700.000000pt" height="700.000000pt" viewBox="0 0 700.000000 700.000000"
 preserveAspectRatio="xMidYMid meet">
<g transform="translate(0.000000,700.000000) scale(0.100000,-0.100000)"
fill="#000000" stroke="none">
<path d="M3235 6990 c-943 -75 -1825 -536 -2435 -1275 -610 -739 -904 -1683
-813 -2610 91 -926 530 -1789 1213 -2385 683 -596 1566 -893 2445 -822 879
71 1699 475 2269 1117 570 642 861 1465 805 2275 -56 810 -432 1560 -1039
2076 -607 516 -1388 779 -2160 728 -193 -13 -217 -13 -285 -104z m545 -420
c825 -86 1570 -496 2065 -1135 495 -639 711 -1455 598 -2260 -113 -805 -532
-1524 -1158 -1988 -626 -464 -1412 -663 -2175 -550 -763 113 -1457 532 -1921
1158 -464 626 -663 1412 -550 2175 113 763 532 1457 1158 1921 482 357 1063
549 1663 549 160 0 248 -13 320 -30z"/>
<path d="M3120 5890 c-635 -75 -1211 -438 -1586 -1000 -375 -562 -485 -1289
-304 -2005 181 -716 654 -1329 1305 -1692 651 -363 1432 -384 2160 -58 728
326 1274 959 1508 1750 234 791 123 1650 -307 2375 -430 725 -1137 1209 -1956
1338 -204 32 -616 44 -820 24z"/>
</g>
</svg> 